<svg xmlns="http://www.w3.org/2000/svg" xmlns:xlink="http://www.w3.org/1999/xlink" viewBox="0 0 312.13 55.65"><defs><style>.cls-1{fill:url(#Безымянный_градиент_80);}.cls-2{fill:url(#Безымянный_градиент_19);}.cls-3{fill:url(#Безымянный_градиент_80-2);}.cls-4{fill:url(#Безымянный_градиент_19-2);}.cls-5{fill:url(#Безымянный_градиент_80-3);}</style><linearGradient id="Безымянный_градиент_80" y1="27.73" x2="63.87" y2="27.73" gradientUnits="userSpaceOnUse"><stop offset="0" stop-color="#0089fb"/><stop offset="0.13" stop-color="#0080fa"/><stop offset="0.28" stop-color="#007cf9"/><stop offset="0.67" stop-color="#3d71f4"/><stop offset="0.92" stop-color="#0057f4"/><stop offset="1" stop-color="#004ff3"/></linearGradient><linearGradient id="Безымянный_градиент_19" x1="59.56" y1="63.18" x2="-8.18" y2="19.19" gradientUnits="userSpaceOnUse"><stop offset="0" stop-color="#fa9d3d"/><stop offset="0.09" stop-color="#f78a35"/><stop offset="0.18" stop-color="#f67f30"/><stop offset="0.28" stop-color="#f57b2e"/><stop offset="0.67" stop-color="#ce4d26"/><stop offset="0.92" stop-color="#b94723"/></linearGradient><linearGradient id="Безымянный_градиент_80-2" x1="108.18" y1="64.14" x2="72.3" y2="40.84" xlink:href="#Безымянный_градиент_80"/><linearGradient id="Безымянный_градиент_19-2" x1="83.59" y1="19.81" x2="17.33" y2="-23.22" xlink:href="#Безымянный_градиент_19"/><linearGradient id="Безымянный_градиент_80-3" x1="49.87" y1="27.73" x2="88.8" y2="27.73" xlink:href="#Безымянный_градиент_80"/></defs><title>Ресурс 2</title><g id="Слой_2" data-name="Слой 2"><g id="Слой_1-2" data-name="Слой 1"><path d="M138.61,9.62c0-6.88,5.32-9.17,13.83-9.17,2.79,0,7.82.41,10.56.74V28.93h-6.51V20.34H145.08v8.59h-6.47Zm17.88,5V6.3c-1.31-.12-2.9-.2-4.5-.2-4.05,0-6.91.69-6.91,3.52v5Z"/><path d="M168.36,23.9l14-17.56H169V.78H191V5.65l-14.2,17.76h14.28v5.52H168.36Z"/><path d="M196.47,1c2.09-.2,6.22-.53,9.41-.53,8.43,0,13.63,1.1,13.63,7.82,0,3.8-2.37,5.4-5.61,6.05,5.08.66,6.8,3.32,6.8,6.8,0,7.32-6.35,8.14-14.24,8.14a71.85,71.85,0,0,1-10-.61Zm6.47,23.16a33.3,33.3,0,0,0,4,.21c5.07,0,6.79-.66,6.79-3.77s-1.72-3.72-6.47-3.72c-1.14,0-3,0-4.33.08Zm0-11.86a29,29,0,0,0,3.31.08c5,0,6.55-.57,6.55-3.64,0-2.75-1.56-3.36-6-3.36a35.41,35.41,0,0,0-3.84.2Z"/><path d="M225.6.78h6.51V19c0,3.23,1.39,4.46,6.1,4.46S244.47,22,244.47,19V.78h6.47v19.8c0,5.12-3.56,8.68-13,8.68-7.32,0-12.36-2.25-12.36-8.68Z"/><path d="M257.72.78h6.51V11.62a18.84,18.84,0,0,0,3,.21c6.71,0,7.57-2.75,7.57-9.42,0-.61,0-1.18-.08-1.63h6.46a8,8,0,0,1,.09,1.76c0,6.83-1.39,11.09-5.49,13.17l7.66,13.22H276l-6.47-11.78c-.78,0-1.51.08-2.29.08a23.06,23.06,0,0,1-3-.17V28.93h-6.51Z"/><path d="M287.72,9.62c0-6.88,5.32-9.17,13.83-9.17,2.78,0,7.82.41,10.56.74V28.93H305.6V20.34H294.18v8.59h-6.46Zm17.88,5V6.3c-1.31-.12-2.9-.2-4.5-.2-4.05,0-6.92.69-6.92,3.52v5Z"/><path d="M138.93,43a.5.5,0,0,1,.15-.37.48.48,0,0,1,.37-.14l1.54,0h2.07a6.41,6.41,0,0,1,4.63,1.59,6.28,6.28,0,0,1,1.66,4.75,8.43,8.43,0,0,1-.52,3.12A4.82,4.82,0,0,1,147.38,54a6.61,6.61,0,0,1-2.07,1.08,8.44,8.44,0,0,1-2.48.35c-1.32,0-2.45,0-3.38,0a.49.49,0,0,1-.52-.54Zm1.89,10.72,2.24,0q4.26,0,4.26-4.83a5.1,5.1,0,0,0-1.14-3.71,4.57,4.57,0,0,0-3.37-1.14l-2,0Z"/><path d="M171.47,42.51A.48.48,0,0,1,172,43V54.86a.51.51,0,0,1-.14.38.53.53,0,0,1-.37.14h-.86a.51.51,0,0,1-.37-.14.52.52,0,0,1-.15-.38V43a.5.5,0,0,1,.15-.37.48.48,0,0,1,.37-.14Z"/><path d="M198.54,49.47a.5.5,0,0,1,.15-.37.49.49,0,0,1,.37-.14h3.66a.49.49,0,0,1,.37.14.5.5,0,0,1,.15.37v4.81a.65.65,0,0,1-.5.67,12.16,12.16,0,0,1-4.11.7,5.48,5.48,0,0,1-4.36-1.76,7.07,7.07,0,0,1-1.54-4.84,7.12,7.12,0,0,1,1.66-5,5.85,5.85,0,0,1,4.52-1.81,9.29,9.29,0,0,1,3.17.51.59.59,0,0,1,.43.7l0,.72a.41.41,0,0,1-.18.29.37.37,0,0,1-.34,0,8.39,8.39,0,0,0-3-.56q-4.18,0-4.19,5a5.6,5.6,0,0,0,1.09,3.79,3.79,3.79,0,0,0,3,1.24,7.94,7.94,0,0,0,2.48-.29V50.49h-2.3a.5.5,0,0,1-.37-.15.48.48,0,0,1-.15-.37Z"/><path d="M225.58,42.51a.48.48,0,0,1,.51.51V54.86a.51.51,0,0,1-.14.38.53.53,0,0,1-.37.14h-.86a.51.51,0,0,1-.37-.14.52.52,0,0,1-.15-.38V43a.5.5,0,0,1,.15-.37.48.48,0,0,1,.37-.14Z"/><path d="M251.6,44.2V54.86a.52.52,0,0,1-.15.38.53.53,0,0,1-.37.14h-.86a.53.53,0,0,1-.37-.14.52.52,0,0,1-.15-.38V44.2h-3.13a.52.52,0,0,1-.38-.15.53.53,0,0,1-.14-.37V43a.53.53,0,0,1,.14-.37.51.51,0,0,1,.38-.14h8.21a.48.48,0,0,1,.51.51v.66a.49.49,0,0,1-.14.37.5.5,0,0,1-.37.15Z"/><path d="M285.19,54.89a.35.35,0,0,1,0,.34.37.37,0,0,1-.3.15h-1.1a.68.68,0,0,1-.7-.49l-1-3h-4.92l-1,3a.64.64,0,0,1-.67.49h-1a.34.34,0,0,1-.29-.15.35.35,0,0,1-.05-.34l4.36-12a.69.69,0,0,1,.7-.5h1.1a.69.69,0,0,1,.7.5Zm-5.52-10.58h-.07l-2,6h4Z"/><path d="M305.73,55.38a.51.51,0,0,1-.37-.14.52.52,0,0,1-.15-.38V43a.5.5,0,0,1,.15-.37.48.48,0,0,1,.37-.14h.85a.5.5,0,0,1,.38.14.53.53,0,0,1,.14.37V53.67h4.51a.52.52,0,0,1,.38.15.51.51,0,0,1,.14.37v.67a.48.48,0,0,1-.52.52Z"/><polygon class="cls-1" points="56.96 43.42 38.93 12.19 31.94 0.08 31.9 0.14 31.87 0.08 24.91 12.25 0 55.39 13.99 55.39 14.04 55.39 20.89 43.44 31.9 24.36 37.43 33.94 37.43 33.94 43.72 44.48 24.93 44.48 18.73 55.39 49.82 55.39 63.8 55.39 63.87 55.39 56.96 43.42"/><polygon class="cls-2" points="64.93 55.32 64.93 55.32 57.78 43.15 43.92 43.15 25.63 43.13 18.5 55.38 50.02 55.38 64.93 55.32"/><polygon class="cls-3" points="108.87 55.39 113.87 55.38 106.8 43.13 88.79 43.13 70.82 43.13 63.74 55.39 94.88 55.39 108.87 55.39"/><polygon class="cls-4" points="88.8 12.19 88.8 12.19 81.81 0.08 68.78 0.02 50.54 0 43.35 12.25 74.87 12.25 88.8 12.19"/><polygon class="cls-5" points="63.86 55.39 63.77 55.39 88.8 12.19 81.81 0.08 81.78 0.14 81.74 0.08 74.75 12.19 49.88 55.39 63.86 55.39"/></g></g></svg>