<svg xmlns="http://www.w3.org/2000/svg" height="937pt" version="1.1" viewBox="-133 0 937 937.5" width="937pt">
<g id="surface1">
<path d="M 484.625 0 L 78.375 0 C 35.25 0.0546875 0.304688 35 0.25 78.125 L 0.25 859.375 C 0.304688 902.5 35.25 937.445312 78.375 937.5 L 484.625 937.5 L 484.625 906.25 C 484.625 902.703125 483.414062 899.257812 481.203125 896.484375 C 447.296875 854.417969 442.726562 795.828125 469.703125 749.019531 L 482.5625 726.503906 C 486.035156 720.398438 485.007812 712.71875 480.046875 707.753906 L 347.234375 574.941406 C 332.171875 559.394531 332.375 534.644531 347.667969 519.34375 C 362.976562 504.042969 387.726562 503.847656 403.265625 518.90625 L 567.328125 682.96875 L 589.421875 660.878906 L 562.75 634.15625 L 562.75 480.828125 L 606.078125 533.09375 C 628.511719 558.71875 640.875 591.625 640.875 625.683594 L 640.875 937.5 L 672.125 937.5 L 672.125 625.683594 C 672.164062 584.21875 657.179688 544.121094 629.9375 512.84375 L 562.75 431.878906 L 562.75 78.125 C 562.695312 35 527.75 0.0546875 484.625 0 Z M 78.375 31.25 L 484.625 31.25 C 510.507812 31.25 531.5 52.242188 531.5 78.125 L 531.5 93.75 L 31.5 93.75 L 31.5 78.125 C 31.5 52.242188 52.492188 31.25 78.375 31.25 Z M 31.5 859.375 L 31.5 812.5 L 421.382812 812.5 C 420.960938 845.953125 430.953125 878.714844 449.96875 906.25 L 78.375 906.25 C 52.492188 906.25 31.5 885.257812 31.5 859.375 Z M 109.625 562.5 L 306.328125 562.5 C 308.96875 574.121094 314.546875 584.875 322.507812 593.75 L 203.375 593.75 L 203.375 625 L 353.15625 625 L 384.40625 656.25 L 109.625 656.25 Z M 422.125 494.132812 L 422.125 468.75 L 203.375 468.75 L 203.375 500 L 322.507812 500 C 314.546875 508.875 308.96875 519.628906 306.328125 531.25 L 109.625 531.25 L 109.625 453.125 C 109.625 444.492188 116.617188 437.5 125.25 437.5 L 437.75 437.5 C 446.382812 437.5 453.375 444.492188 453.375 453.125 L 453.375 524.78125 L 425.359375 496.765625 C 424.359375 495.761719 423.171875 495.0625 422.125 494.132812 Z M 484.625 556.03125 L 484.625 453.125 C 484.625 427.242188 463.632812 406.25 437.75 406.25 L 125.25 406.25 C 99.367188 406.25 78.375 427.242188 78.375 453.125 L 78.375 750 L 109.625 750 L 109.625 687.5 L 415.65625 687.5 L 449.515625 721.363281 L 442.578125 733.496094 C 434.125 748.382812 428.058594 764.492188 424.59375 781.25 L 31.5 781.25 L 31.5 125 L 531.5 125 L 531.5 602.90625 Z M 484.625 556.03125 " style=" stroke:none;fill-rule:nonzero;fill:rgb(0%,0%,0%);fill-opacity:1;" />
<path d="M 265.875 843.75 L 297.125 843.75 L 297.125 875 L 265.875 875 Z M 265.875 843.75 " style=" stroke:none;fill-rule:nonzero;fill:rgb(0%,0%,0%);fill-opacity:1;" />
<path d="M 410.285156 203.589844 L 285.285156 172.339844 C 282.792969 171.722656 280.207031 171.722656 277.714844 172.339844 L 152.714844 203.589844 C 145.757812 205.328125 140.875 211.578125 140.875 218.75 L 140.875 250 C 140.875 258.632812 147.867188 265.625 156.5 265.625 L 172.125 265.625 L 172.125 343.75 L 140.875 343.75 L 140.875 375 L 422.125 375 L 422.125 343.75 L 390.875 343.75 L 390.875 265.625 L 406.5 265.625 C 415.132812 265.625 422.125 258.632812 422.125 250 L 422.125 218.75 C 422.125 211.578125 417.242188 205.328125 410.285156 203.589844 Z M 203.375 265.625 L 234.625 265.625 L 234.625 343.75 L 203.375 343.75 Z M 297.125 265.625 L 297.125 343.75 L 265.875 343.75 L 265.875 265.625 Z M 359.625 343.75 L 328.375 343.75 L 328.375 265.625 L 359.625 265.625 Z M 390.875 234.375 L 172.125 234.375 L 172.125 230.953125 L 281.5 203.609375 L 390.875 230.953125 Z M 390.875 234.375 " style=" stroke:none;fill-rule:nonzero;fill:rgb(0%,0%,0%);fill-opacity:1;" />
<path d="M 140.875 468.75 L 172.125 468.75 L 172.125 500 L 140.875 500 Z M 140.875 468.75 " style=" stroke:none;fill-rule:nonzero;fill:rgb(0%,0%,0%);fill-opacity:1;" />
<path d="M 140.875 593.75 L 172.125 593.75 L 172.125 625 L 140.875 625 Z M 140.875 593.75 " style=" stroke:none;fill-rule:nonzero;fill:rgb(0%,0%,0%);fill-opacity:1;" />
<path d="M 140.875 718.75 L 172.125 718.75 L 172.125 750 L 140.875 750 Z M 140.875 718.75 " style=" stroke:none;fill-rule:nonzero;fill:rgb(0%,0%,0%);fill-opacity:1;" />
<path d="M 203.375 718.75 L 406.5 718.75 L 406.5 750 L 203.375 750 Z M 203.375 718.75 " style=" stroke:none;fill-rule:nonzero;fill:rgb(0%,0%,0%);fill-opacity:1;" />
<path d="M 62.75 156.25 L 94 156.25 L 94 187.5 L 62.75 187.5 Z M 62.75 156.25 " style=" stroke:none;fill-rule:nonzero;fill:rgb(0%,0%,0%);fill-opacity:1;" />
</g>
</svg>